<?xml version="1.0" encoding="UTF-8"?> <svg xmlns="http://www.w3.org/2000/svg" xmlns:xlink="http://www.w3.org/1999/xlink" width="31pt" height="15pt" viewBox="0 0 31 15"> <g id="surface1"> <rect x="0" y="0" width="31" height="15" style="fill:rgb(14.901961%,14.901961%,14.901961%);fill-opacity:1;stroke:none;"></rect> <path style=" stroke:none;fill-rule:nonzero;fill:rgb(100%,100%,100%);fill-opacity:1;" d="M 0.34375 14.707031 L 1.496094 14.707031 L 1.496094 13.511719 L 2.0625 13.511719 C 3.097656 13.511719 3.847656 12.992188 3.847656 12.011719 C 3.847656 11.074219 3.171875 10.53125 2.125 10.53125 L 0.34375 10.53125 Z M 1.496094 12.605469 L 1.496094 11.503906 L 2.035156 11.503906 C 2.449219 11.503906 2.699219 11.695312 2.699219 12.050781 C 2.699219 12.390625 2.449219 12.605469 2.039062 12.605469 Z M 1.496094 12.605469 "></path> <path style=" stroke:none;fill-rule:nonzero;fill:rgb(100%,100%,100%);fill-opacity:1;" d="M 4.335938 14.707031 L 5.484375 14.707031 L 5.484375 13.441406 L 5.988281 13.441406 L 6.824219 14.707031 L 8.152344 14.707031 L 7.164062 13.25 C 7.679688 13.03125 8.019531 12.605469 8.019531 11.96875 C 8.019531 11.546875 7.894531 11.222656 7.648438 10.980469 C 7.371094 10.699219 6.933594 10.53125 6.296875 10.53125 L 4.335938 10.53125 Z M 5.484375 12.535156 L 5.484375 11.535156 L 6.238281 11.535156 C 6.625 11.535156 6.859375 11.699219 6.859375 12.027344 C 6.859375 12.34375 6.636719 12.535156 6.246094 12.535156 Z M 5.484375 12.535156 "></path> <path style=" stroke:none;fill-rule:nonzero;fill:rgb(100%,100%,100%);fill-opacity:1;" d="M 10.683594 14.789062 C 11.964844 14.789062 12.925781 13.816406 12.925781 12.617188 C 12.925781 11.410156 11.976562 10.449219 10.695312 10.449219 C 9.417969 10.449219 8.457031 11.421875 8.457031 12.617188 C 8.457031 13.828125 9.402344 14.789062 10.683594 14.789062 Z M 10.695312 13.746094 C 10.070312 13.746094 9.636719 13.222656 9.636719 12.617188 C 9.636719 12.003906 10.054688 11.492188 10.683594 11.492188 C 11.320312 11.492188 11.753906 12.015625 11.753906 12.617188 C 11.753906 13.234375 11.332031 13.746094 10.695312 13.746094 Z M 10.695312 13.746094 "></path> <path style=" stroke:none;fill-rule:nonzero;fill:rgb(99.607843%,82.352941%,20%);fill-opacity:1;" d="M 15.6875 14.789062 C 16.605469 14.789062 17.132812 14.390625 17.527344 13.847656 L 16.660156 13.226562 C 16.410156 13.53125 16.15625 13.734375 15.722656 13.734375 C 15.140625 13.734375 14.734375 13.246094 14.734375 12.617188 C 14.734375 12 15.140625 11.503906 15.722656 11.503906 C 16.121094 11.503906 16.398438 11.6875 16.636719 11.988281 L 17.480469 11.332031 C 17.109375 10.816406 16.582031 10.449219 15.734375 10.449219 C 14.476562 10.449219 13.546875 11.402344 13.546875 12.617188 C 13.546875 13.875 14.5 14.789062 15.6875 14.789062 Z M 15.6875 14.789062 "></path> <path style=" stroke:none;fill-rule:nonzero;fill:rgb(99.607843%,82.352941%,20%);fill-opacity:1;" d="M 19.992188 14.789062 C 21.273438 14.789062 22.234375 13.816406 22.234375 12.617188 C 22.234375 11.410156 21.285156 10.449219 20.003906 10.449219 C 18.722656 10.449219 17.761719 11.421875 17.761719 12.617188 C 17.761719 13.828125 18.710938 14.789062 19.992188 14.789062 Z M 20.003906 13.746094 C 19.375 13.746094 18.941406 13.222656 18.941406 12.617188 C 18.941406 12.003906 19.363281 11.492188 19.992188 11.492188 C 20.628906 11.492188 21.0625 12.015625 21.0625 12.617188 C 21.0625 13.234375 20.640625 13.746094 20.003906 13.746094 Z M 20.003906 13.746094 "></path> <path style=" stroke:none;fill-rule:nonzero;fill:rgb(99.607843%,82.352941%,20%);fill-opacity:1;" d="M 22.835938 14.707031 L 24.410156 14.707031 C 25.90625 14.707031 26.777344 13.8125 26.777344 12.605469 C 26.777344 11.390625 25.917969 10.53125 24.4375 10.53125 L 22.835938 10.53125 Z M 23.984375 13.679688 L 23.984375 11.546875 L 24.453125 11.546875 C 25.140625 11.546875 25.597656 11.945312 25.597656 12.613281 C 25.597656 13.296875 25.140625 13.679688 24.453125 13.679688 Z M 23.984375 13.679688 "></path> <path style=" stroke:none;fill-rule:nonzero;fill:rgb(99.607843%,82.352941%,20%);fill-opacity:1;" d="M 27.371094 14.707031 L 30.738281 14.707031 L 30.738281 13.722656 L 28.507812 13.722656 L 28.507812 13.058594 L 30.5 13.058594 L 30.5 12.148438 L 28.507812 12.148438 L 28.507812 11.515625 L 30.707031 11.515625 L 30.707031 10.53125 L 27.371094 10.53125 Z M 27.371094 14.707031 "></path> <path style=" stroke:none;fill-rule:nonzero;fill:rgb(99.607843%,82.352941%,20%);fill-opacity:1;" d="M 14.742188 6.347656 L 16.140625 6.347656 C 16.207031 6.347656 16.246094 6.273438 16.207031 6.21875 L 14.019531 3.363281 C 14 3.335938 14 3.296875 14.019531 3.265625 L 16.203125 0.460938 C 16.246094 0.410156 16.207031 0.332031 16.140625 0.332031 L 14.742188 0.332031 C 14.71875 0.332031 14.695312 0.34375 14.679688 0.363281 L 12.417969 3.265625 C 12.398438 3.296875 12.398438 3.335938 12.417969 3.363281 L 14.679688 6.316406 C 14.695312 6.335938 14.71875 6.347656 14.742188 6.347656 Z M 14.742188 6.347656 "></path> <path style=" stroke:none;fill-rule:nonzero;fill:rgb(100%,100%,100%);fill-opacity:1;" d="M 16.660156 3.203125 L 15.257812 3.203125 C 15.191406 3.203125 15.15625 3.277344 15.195312 3.332031 L 17.378906 6.1875 C 17.402344 6.214844 17.402344 6.257812 17.378906 6.285156 L 15.199219 9.089844 C 15.15625 9.140625 15.195312 9.21875 15.261719 9.21875 L 16.660156 9.21875 C 16.683594 9.21875 16.707031 9.207031 16.722656 9.1875 L 18.980469 6.285156 C 19.003906 6.257812 19.003906 6.214844 18.980469 6.1875 L 16.722656 3.234375 C 16.707031 3.214844 16.683594 3.203125 16.660156 3.203125 Z M 16.660156 3.203125 "></path> </g> </svg> 